<svg xmlns="http://www.w3.org/2000/svg" xml:space="preserve" width="800" height="800" viewBox="0 0 24 24"><path d="M22 15h-7.586l2.293-2.293a1 1 0 0 0-1.414-1.414l-4 4a1 1 0 0 0 0 1.414l4 4a1 1 0 0 0 1.414-1.414L14.414 17H22a1 1 0 0 0 0-2z" style="fill:green;fill-opacity:1"/><path d="M1 8a1 1 0 0 1 1-1h7.586L7.293 4.707a1 1 0 1 1 1.414-1.414l4 4a1 1 0 0 1 0 1.414l-4 4a1 1 0 1 1-1.414-1.414L9.586 9H2a1 1 0 0 1-1-1Z"/><path d="M259.007 432.396c-9.832-2.44-18.189-9.213-22.44-18.187-2.329-4.917-2.487-5.797-2.487-13.836 0-8.162.13-8.853 2.633-14.021 2.434-5.025 5.702-8.515 43.204-46.127l40.572-40.69-130.839-.205-130.838-.206-5.265-2.494c-13.6-6.442-21.77-21.019-19.382-34.577 1.943-11.033 8.707-20.136 18.57-24.992L58 234.47l131.078-.203c72.093-.112 131.078-.458 131.078-.77 0-.31-18.388-18.972-40.863-41.47-46.619-46.67-44.783-44.347-45.433-57.487-.304-6.142-.092-7.965 1.4-12.074 7.733-21.293 32.601-29.119 50.332-15.839 2.516 1.884 35.3 34.224 72.853 71.866 59.819 59.96 68.574 69.032 70.655 73.214 3.26 6.555 4.458 13.47 3.386 19.554-1.979 11.237 2.264 6.494-75.583 84.483-48.61 48.699-72.443 72.047-74.914 73.392-7.377 4.015-15.374 5.15-22.982 3.261z" style="fill:#dd4c35;fill-opacity:1;stroke-width:.778968" transform="scale(.03)"/></svg>