<?xml version="1.0" encoding="UTF-8" standalone="no"?>
<svg
   xml:space="preserve"
   width="800"
   height="800"
   viewBox="0 0 511.999 511.999"
   version="1.1"
   id="svg38"
   sodipodi:docname="git-branches.svg"
   inkscape:version="1.2.2 (b0a8486541, 2022-12-01)"
   xmlns:inkscape="http://www.inkscape.org/namespaces/inkscape"
   xmlns:sodipodi="http://sodipodi.sourceforge.net/DTD/sodipodi-0.dtd"
   xmlns="http://www.w3.org/2000/svg"
   xmlns:svg="http://www.w3.org/2000/svg"><defs
     id="defs42" /><sodipodi:namedview
     id="namedview40"
     pagecolor="
ffffff"
     bordercolor="#000000"
     borderopacity="0.25"
     inkscape:showpageshadow="2"
     inkscape:pageopacity="0.0"
     inkscape:pagecheckerboard="0"
     inkscape:deskcolor="#dd4c35"
     showgrid="false"
     inkscape:zoom="1.28375"
     inkscape:cx="400"
     inkscape:cy="400"
     inkscape:window-width="5120"
     inkscape:window-height="1368"
     inkscape:window-x="0"
     inkscape:window-y="0"
     inkscape:window-maximized="1"
     inkscape:current-layer="svg38" /><path
     d="M430.38 504.091c-6.251 0-12.108-3.882-14.328-10.108-42.097-118.076-121.582-224.301-180.848-292.621-64.559-74.417-119.827-121.277-120.378-121.741-6.42-5.416-7.237-15.013-1.821-21.434 5.416-6.422 15.012-7.238 21.432-1.825 2.309 1.947 57.314 48.548 123.372 124.633 38.813 44.704 73.296 90.28 102.492 135.462 36.647 56.713 65.046 113.005 84.406 167.31 2.821 7.913-1.306 16.615-9.22 19.436a15.142 15.142 0 0 1-5.107.888z"
     style="fill:#dd4c35"
     id="path2" /><path
     d="M134.437 56.362c-6.42-5.412-16.016-4.597-21.432 1.825-5.415 6.421-4.599 16.018 1.821 21.434.286.241 15.389 13.047 38.901 35.753a76.367 76.367 0 0 0 21.141-21.944c-23.806-22.989-39.231-36.056-40.431-37.068z"
     style="fill:#dd4c35"
     id="path4" /><path
     d="M148.313 255.954a182.01 182.01 0 0 1-71.581-14.658c-7.723-3.304-11.307-12.243-8.003-19.968s12.245-11.307 19.968-8.003c52.725 22.554 112.752 13.696 156.651-23.121 43.9-36.816 63.082-94.379 50.057-150.229-1.908-8.181 3.178-16.36 11.36-18.269 8.178-1.907 16.36 3.179 18.269 11.36a182.109 182.109 0 0 1-4.083 97.341c-10.467 32.394-29.852 61.132-56.053 83.105-26.202 21.975-57.877 36.055-91.599 40.719a182.11 182.11 0 0 1-24.986 1.723z"
     style="fill:#dd4c35"
     id="path6" /><path
     d="M306.775 21.707c-8.182 1.909-13.267 10.087-11.36 18.269 6.733 28.87 4.839 58.191-4.606 84.875a75.431 75.431 0 0 0 23.766 3.84c2.365 0 4.701-.124 7.011-.337 9.585-30.902 10.8-63.796 3.457-95.287-1.909-8.181-10.09-13.267-18.268-11.36zM88.697 213.325c-7.722-3.305-16.665.278-19.968 8.003-3.305 7.724.279 16.665 8.003 19.968a182.01 182.01 0 0 0 71.581 14.658c6.759 0 13.529-.397 20.283-1.152a75.406 75.406 0 0 0 4.07-24.443c0-2.247-.118-4.466-.31-6.664-27.703 4.476-56.638 1.188-83.659-10.37z"
     style="fill:#dd4c35"
     id="path8" /><path
     d="M248.835 398.365a182.014 182.014 0 0 1-71.582-14.658c-7.723-3.304-11.307-12.243-8.003-19.968 3.304-7.724 12.243-11.307 19.968-8.003 52.725 22.554 112.753 13.695 156.652-23.12 43.9-36.817 63.081-94.38 50.057-150.23-1.908-8.181 3.178-16.36 11.36-18.269 8.178-1.904 16.361 3.179 18.269 11.36a182.108 182.108 0 0 1-4.083 97.341c-10.468 32.394-29.851 61.132-56.053 83.106-26.202 21.973-57.877 36.054-91.599 40.718a181.952 181.952 0 0 1-24.986 1.723z"
     style="fill:#dd4c35"
     id="path10" /><path
     d="M407.297 164.119c-8.182 1.909-13.267 10.087-11.36 18.269 6.733 28.87 4.838 58.191-4.606 84.875a75.431 75.431 0 0 0 23.766 3.84c2.365 0 4.701-.124 7.011-.337 9.585-30.902 10.8-63.796 3.457-95.287-1.907-8.181-10.09-13.265-18.268-11.36zM189.219 355.737c-7.724-3.305-16.665.278-19.968 8.003-3.305 7.724.279 16.665 8.003 19.968a182.014 182.014 0 0 0 71.582 14.658c6.757 0 13.529-.397 20.283-1.152a75.406 75.406 0 0 0 4.07-24.443c0-2.247-.118-4.466-.31-6.665-27.705 4.477-56.64 1.189-83.66-10.369z"
     style="fill:#dd4c35"
     id="path12" /><circle
     cx="110.892"
     cy="52.937"
     r="45.33"
     style="fill:#dd4c35"
     id="circle14" /><path
     d="M106.773 63.076c0-21.224 14.588-39.036 34.284-43.968-8.014-7.149-18.578-11.501-30.163-11.501-25.035 0-45.33 20.295-45.33 45.33s20.295 45.33 45.33 45.33c3.811 0 7.51-.477 11.048-1.362-9.305-8.301-15.169-20.378-15.169-33.829z"
     style="fill:#dd4c35"
     id="path16" /><circle
     cx="314.563"
     cy="52.937"
     r="45.33"
     style="fill:#dd4c35"
     id="circle18" /><path
     d="M310.445 63.076c0-21.224 14.588-39.036 34.284-43.968-8.014-7.149-18.578-11.501-30.163-11.501-25.035 0-45.33 20.295-45.33 45.33s20.295 45.33 45.33 45.33c3.811 0 7.51-.477 11.048-1.362-9.306-8.301-15.169-20.378-15.169-33.829z"
     style="fill:#dd4c35"
     id="path20" /><circle
     cx="96.907"
     cy="230.364"
     r="45.33"
     style="fill:#dd4c35"
     id="circle22" /><path
     d="M92.791 240.499c0-21.224 14.588-39.036 34.284-43.968-8.013-7.15-18.578-11.502-30.162-11.502-25.035 0-45.33 20.295-45.33 45.33s20.295 45.33 45.33 45.33c3.811 0 7.51-.477 11.048-1.362-9.307-8.302-15.17-20.377-15.17-33.828z"
     style="fill:#dd4c35"
     id="path24" /><circle
     cx="415.091"
     cy="195.347"
     r="45.33"
     style="fill:#dd4c35"
     id="circle26" /><path
     d="M410.966 205.488c0-21.224 14.588-39.036 34.284-43.968-8.013-7.15-18.578-11.502-30.162-11.502-25.035 0-45.33 20.295-45.33 45.33s20.295 45.33 45.33 45.33c3.811 0 7.51-.477 11.048-1.362-9.306-8.301-15.17-20.377-15.17-33.828z"
     style="fill:#dd4c35"
     id="path28" /><circle
     cx="197.435"
     cy="372.773"
     r="45.33"
     style="fill:#dd4c35"
     id="circle30" /><path
     d="M193.313 382.91c0-21.224 14.588-39.036 34.284-43.968-8.013-7.15-18.578-11.502-30.162-11.502-25.035 0-45.33 20.295-45.33 45.33s20.295 45.33 45.33 45.33c3.811 0 7.51-.477 11.048-1.362-9.306-8.301-15.17-20.378-15.17-33.828z"
     style="fill:#dd4c35"
     id="path32" /><path
     d="M65.563 60.543a7.605 7.605 0 0 0 7.606-7.606c0-3.908.593-7.757 1.764-11.441a7.606 7.606 0 0 0-14.497-4.607 52.915 52.915 0 0 0-2.478 16.048 7.605 7.605 0 0 0 7.605 7.606z"
     id="path34"
     style="fill:#ff0000" /><path
     d="M387.28 345.619c18.709-20.112 33.005-44.385 41.43-70.46a190.304 190.304 0 0 0 7.226-31.161c18.851-8.11 32.087-26.861 32.087-48.65 0-29.189-23.747-52.936-52.936-52.936s-52.936 23.747-52.936 52.936c0 20.176 11.35 37.748 27.998 46.678-4.073 23.053-13.731 44.617-28.189 63.062-22.317-33.919-47.557-68.011-75.317-101.753 18.772-20.144 33.098-44.45 41.545-70.588a190.387 190.387 0 0 0 7.226-31.16c18.851-8.11 32.087-26.861 32.087-48.65C367.502 23.747 343.755 0 314.566 0S261.63 23.747 261.63 52.936c0 20.169 11.343 37.736 27.981 46.669-4.506 25.526-15.759 49.1-32.798 68.698-38.493-43.695-72.689-77.105-95.783-98.411a52.68 52.68 0 0 0 2.802-16.956C163.833 23.747 140.085 0 110.897 0 99.975.001 89.492 3.299 80.576 9.538A7.605 7.605 0 0 0 89.296 22c6.347-4.441 13.815-6.787 21.597-6.787 20.802 0 37.724 16.923 37.724 37.724s-16.923 37.724-37.724 37.724a37.748 37.748 0 0 1-31.161-16.454 7.606 7.606 0 0 0-12.554 8.59 52.949 52.949 0 0 0 43.714 23.075 52.68 52.68 0 0 0 18.257-3.247c18.667 17.213 53.638 50.804 92.682 95.011-22.323 13.422-47.465 20.416-73.449 20.39-5.572-23.259-26.528-40.606-51.472-40.606-29.189 0-52.936 23.747-52.936 52.936s23.747 52.936 52.936 52.936c16.754 0 31.704-7.832 41.41-20.017 52.989 1.24 90.139-15.32 113.41-30.536 24.531 29.883 51.045 65.012 76.16 103.826-23.402 15.492-51.066 23.846-78.988 23.863-5.577-23.254-26.53-40.596-51.47-40.596-29.189 0-52.936 23.747-52.936 52.936s23.747 52.936 52.936 52.936c16.756 0 31.707-7.834 41.414-20.02 11.45 1.228 27.416-.317 36.014-1.506a7.604 7.604 0 0 0 6.492-8.576c-.575-4.162-4.423-7.06-8.576-6.492a175.552 175.552 0 0 1-25.552 1.63 52.606 52.606 0 0 0 3.066-15.105c30.344-.282 60.323-9.453 85.767-26.236a956.998 956.998 0 0 1 7.967 12.955 173.765 173.765 0 0 1-30.983 16.127c-3.903 1.554-6.054 6.085-4.254 9.879 2.947 6.213 8.957 4.621 9.879 4.254a189.071 189.071 0 0 0 33.101-17.16c22.093 38.035 42.043 78.795 57.118 121.08 3.233 9.067 13.638 19.56 29.154 13.83 5.717-2.111 10.341-6.206 12.953-11.714 2.612-5.507 2.924-11.701.876-17.44-15.754-44.195-37.429-89.669-64.588-135.591zM96.912 268.083c-20.802 0-37.724-16.923-37.724-37.724s16.923-37.724 37.724-37.724 37.724 16.923 37.724 37.724-16.922 37.724-37.724 37.724zm100.522 142.412c-20.802 0-37.724-16.923-37.724-37.724s16.923-37.724 37.724-37.724 37.725 16.923 37.725 37.724-16.923 37.724-37.725 37.724zm179.929-215.146c0-20.802 16.923-37.724 37.724-37.724s37.724 16.923 37.724 37.724-16.923 37.724-37.724 37.724-37.724-16.922-37.724-37.724zm27.268 51.894c7.252 1.316 13.661.957 15.237.815a175.152 175.152 0 0 1-5.632 22.424c-7.298 22.586-19.393 43.701-35.156 61.535v.001a1005.557 1005.557 0 0 0-8.439-13.489h.001c17.27-20.602 28.903-45.032 33.989-71.286zM276.841 52.937c0-20.802 16.923-37.724 37.724-37.724s37.724 16.923 37.724 37.724-16.923 37.724-37.724 37.724-37.724-16.922-37.724-37.724zm27.286 51.897c3.376.677 8.622 1.991 15.216.812a175.103 175.103 0 0 1-5.63 22.424c-7.566 23.417-20.272 45.232-36.888 63.469a1384.46 1384.46 0 0 0-9.947-11.668c19.058-21.34 31.839-47.08 37.249-75.037zM172.256 246.7a175.7 175.7 0 0 1-25.554 1.634 52.58 52.58 0 0 0 3.067-15.111c29.165-.222 57.343-8.416 82.214-23.946 3.263 3.785 6.578 7.672 9.948 11.676-21.044 13.457-44.992 22.332-69.675 25.747zm260.676 249.341c-4.49 1.804-8.638-1.587-9.716-4.611-42.494-119.189-122.572-226.237-182.267-295.051-40.082-46.203-76.847-82.006-97.795-101.513a53.418 53.418 0 0 0 10.626-10.95c24.106 22.411 59.195 57.041 98.286 102.066l.1.117c38.537 44.398 72.77 89.644 101.748 134.488 36.329 56.222 64.466 111.984 83.631 165.737.681 1.911.775 7.553-4.613 9.717z"
     id="path36"
     style="fill:#dd4c35;fill-opacity:1" /></svg>
