<svg xmlns="http://www.w3.org/2000/svg" aria-labelledby="title desc" viewBox="0 0 128 128"><g fill="none" stroke="red" stroke-linecap="round" stroke-linejoin="round" stroke-width="6" filter="url(#soft)" style="stroke-width:7.62023851;stroke-dasharray:none" transform="matrix(1.22 0 0 1.276 -3.967 -26.745)"><path fill="none" d="M28 74c-8 0-14-6-14-14s6-14 14-14c2 0 4 0 5 .4C36 37 44 30 54 30c9 0 17 6 19 15 2-1 4-1 6-1 11 0 20 9 20 20 0 6-3 11-7 15" style="stroke-width:7.62023851;stroke-dasharray:none;fill:#000;fill-opacity:0"/></g><g fill="none" stroke="green" stroke-linecap="round" stroke-linejoin="round" stroke-width="6" transform="matrix(-.773 0 0 .846 91.75 -13.73)"><path d="M44 54v36m0-24c16 0 18 10 30 10h10"/><circle cx="44" cy="54" r="6" fill="green"/><circle cx="44" cy="90" r="6" fill="green"/><circle cx="84" cy="76" r="6" fill="green"/></g><path d="M49.938 90.588h19.317L55.832 118.71l30.086-38.477H66.786c22.037-64.682-10.196-5.302-16.848 10.354z" style="stroke-width:.328541" transform="matrix(1.22 0 0 1.276 -3.967 -26.745)"/><path d="M57.296 116.314c-.006-.107 2.683-5.817 5.976-12.69 3.294-6.874 5.99-12.616 5.993-12.762.003-.145-4.278-.264-9.513-.264s-9.518-.075-9.518-.167c0-.497 6.011-12.552 9.09-18.23 6.087-11.226 11.026-18.885 13.364-20.724.886-.697.966-.705 1.29-.124.807 1.441-1.764 12.127-5.748 23.894-.785 2.317-1.427 4.417-1.427 4.665 0 .353 2.024.472 9.294.545l9.295.094-13.377 17.097a8044.687 8044.687 0 0 0-14.043 17.979c-.366.484-.67.794-.676.687z" style="fill:#06f;stroke:#000;stroke-width:.352521;stroke-opacity:0" transform="matrix(1.22 0 0 1.276 -3.967 -26.745)"/></svg>